<?xml version="1.0" encoding="UTF-8"?>
<svg width="170px" height="287px" viewBox="0 0 170 287" version="1.1" xmlns="http://www.w3.org/2000/svg" xmlns:xlink="http://www.w3.org/1999/xlink">
    <title> </title>
    <g id="新UI" stroke="none" stroke-width="1" fill="none" fill-rule="evenodd">
        <g id="-" fill="#FFFFFF" fill-rule="nonzero">
            <g id="BRAMAH" transform="translate(0.400000, 237.150000)">
                <g id="编组">
                    <path d="M15.84,1.65 C16.9449929,2.61684791 17.5334305,4.04538184 17.43,5.51 C17.4518716,6.72523492 16.9619829,7.8937103 16.08,8.73 C15.0729706,9.65139307 13.8112853,10.2473826 12.46,10.44 C13.5361204,10.4279295 14.5993573,10.6748748 15.56,11.16 C16.4691786,11.6147101 17.2393916,12.3054841 17.79,13.16 C18.342278,14.010794 18.6310187,15.0057318 18.62,16.02 C18.62,19.9133333 15.9533333,21.8566667 10.62,21.8500171 L0,21.8500171 L0,20.52 L1.73,20.59 C2.12,20.59 2.31,20.33 2.31,19.8 L2.31,2.34 C2.30444754,2.16475738 2.24893504,1.99475035 2.15,1.85 C2.04856196,1.70215022 1.87924838,1.61561217 1.7,1.62 L0,1.69 L0,0.36 L11.2,0.36 C12.8489719,0.2438214 14.4876132,0.699391955 15.84,1.65 L15.84,1.65 Z M7.71,1.65 C7.47,1.65 7.32,1.79 7.28,2.08 L7.28,10.08 L9.15,10.08 C10.0795064,10.1570823 10.9899104,9.78548883 11.6,9.08 C12.2044159,8.09438345 12.4809847,6.94259725 12.39,5.79 C12.39,3.07 11.28,1.72 9.08,1.72 L7.71,1.65 Z M7.28,11.3 L7.28,20.12 C7.28,20.43 7.44,20.58 7.78,20.58 L9.54,20.58 C10.6280294,20.6373822 11.6869901,20.2174495 12.44,19.43 C13.2167116,18.4553244 13.5954483,17.2226436 13.5,15.98 C13.6046519,14.728485 13.303071,13.4765734 12.64,12.41 C11.9929172,11.6384948 11.014178,11.2254148 10.01,11.3 L7.28,11.3 Z" id="形状"></path>
                    <path d="M26.68,20.52 L27.94,20.59 L28.01,20.59 C28.42,20.59 28.62,20.33 28.62,19.8 L28.62,2.37 C28.6260326,2.16960419 28.5584401,1.9739416 28.43,1.82 C28.2792138,1.65226581 28.0512694,1.57628434 27.83,1.62 L26.68,1.69 L26.68,0.36 L36,0.36 C38.6,0.36 40.51,0.8 41.75,1.67 C43.0214337,2.63052966 43.7181847,4.1709143 43.6,5.76 C43.6413941,7.11920986 43.141435,8.43924582 42.21,9.43 C41.1733172,10.4800011 39.8340911,11.1793358 38.38,11.43 C39.3030829,11.4462883 40.2073379,11.693841 41.01,12.15 C41.9180546,12.6485892 42.6799278,13.3759885 43.22,14.26 C43.821451,15.2243826 44.1273694,16.3437658 44.1,17.48 C44.1111496,18.2036745 44.2153378,18.9229091 44.41,19.62 C44.61,20.38 44.86,20.79 45.15,20.86 C45.3015784,20.9097545 45.4605014,20.9334239 45.62,20.93 C45.8191732,20.9358207 46.016187,20.8874313 46.19,20.79 L46.19,21.85 L39.82,21.85 C39.4944875,21.0985192 39.3244078,20.2889398 39.32,19.47 C39.32,18.85 39.24,18.39 39.24,18.11 L39.24,16.92 C39.3507646,15.5647612 38.8522809,14.2305844 37.88,13.28 C36.9687602,12.4959462 35.8019971,12.0726388 34.6,12.09 L33.6,12.09 L33.6,19.85 C33.6,20.38 33.84,20.64 34.32,20.64 L36.09,20.57 L36.09,21.85 L26.69,21.85 L26.68,20.52 Z M35.86,10.85 C36.725731,10.8495107 37.5210803,10.3730695 37.93,9.61 C38.4945427,8.58355437 38.7612248,7.41985069 38.7,6.25 C38.8045832,5.01745882 38.5025132,3.78459163 37.84,2.74 C37.181505,1.96733918 36.1918856,1.55809811 35.18,1.64 L34.02,1.64 C33.74,1.64 33.59,1.76 33.59,2 L33.59,10.85 L35.86,10.85 Z" id="形状"></path>
                    <path d="M75.32,20.52 L75.32,21.85 L64.52,21.85 L64.52,20.52 L66.17,20.59 C66.89,20.66 67.25,20.37 67.25,19.73 C67.2304101,19.2399252 67.1077439,18.7594823 66.89,18.32 L65.6,15.15 L57.6,15.15 L56.38,18.15 C56.0884943,18.7087303 55.9149047,19.3213995 55.87,19.95 C55.87,20.45 56.14,20.69 56.66,20.67 L58.28,20.56 L58.28,21.85 L51.81,21.85 L51.81,20.52 L52.81,20.59 L52.96,20.59 C53.4450392,20.5847522 53.8922601,20.3270318 54.14,19.91 C54.5791422,19.2612108 54.9542363,18.5713057 55.26,17.85 L62.68,0.03 L64.44,0.03 L71.93,17.85 C72.1847904,18.5531286 72.5203713,19.2242906 72.93,19.85 C73.2182124,20.2599322 73.6888979,20.5027462 74.19,20.5 L74.37,20.5 L75.32,20.52 Z M58.14,13.85 L65.06,13.85 L61.6,5.61 L58.14,13.85 Z" id="形状"></path>
                    <path d="M110.81,20.52 L110.81,21.85 L101.38,21.85 L101.38,20.52 L103.14,20.59 C103.62,20.59 103.86,20.33 103.86,19.8 L103.86,3.85 L95.6,22.21 L94.43,22.21 L85.18,2.85 L85.18,19.85 C85.18,20.38 85.41,20.64 85.86,20.64 L87.63,20.57 L87.63,21.85 L81.6,21.85 L81.6,20.52 L83,20.59 C83.48,20.59 83.72,20.33 83.72,19.8 L83.72,1.85 C83.72,1.69 83.6,1.61 83.36,1.64 L81.85,1.71 L81.85,0.38 L89.27,0.38 L96.83,16.07 L103.92,0.38 L110.6,0.38 L110.6,1.71 L109.49,1.64 L109.41,1.64 C109.231992,1.63284568 109.061201,1.71081559 108.95,1.85 C108.827801,1.99119982 108.763503,2.17337818 108.77,2.36 L108.77,19.85 C108.77,20.42 109,20.69 109.49,20.64 L110.81,20.52 Z" id="路径"></path>
                    <path d="M140.73,20.52 L140.73,21.85 L129.93,21.85 L129.93,20.52 L131.58,20.59 C132.3,20.66 132.66,20.37 132.66,19.73 C132.64041,19.2399252 132.517744,18.7594823 132.3,18.32 L130.97,15.15 L123.05,15.15 L121.83,18.15 C121.538494,18.7087303 121.364905,19.3213995 121.32,19.95 C121.32,20.45 121.59,20.69 122.11,20.67 L123.73,20.56 L123.73,21.85 L117.22,21.85 L117.22,20.52 L118.22,20.59 L118.37,20.59 C118.855039,20.5847522 119.30226,20.3270318 119.55,19.91 C119.977031,19.2500668 120.33874,18.5500926 120.63,17.82 L128.05,0 L129.81,0 L137.34,17.85 C137.59479,18.5531286 137.930371,19.2242906 138.34,19.85 C138.628212,20.2599322 139.098898,20.5027462 139.6,20.5 L139.78,20.5 L140.73,20.52 Z M123.6,13.85 L130.51,13.85 L127.02,5.57 L123.6,13.85 Z" id="形状"></path>
                </g>
                <path d="M147.27,20.52 L148.53,20.59 L148.6,20.59 C149.01,20.59 149.22,20.33 149.22,19.8 L149.22,2.37 C149.22,1.85 148.99,1.59 148.53,1.62 L147.27,1.69 L147.27,0.36 L156.67,0.36 L156.67,1.69 L154.9,1.62 L154.83,1.62 C154.645101,1.60622165 154.465369,1.68485435 154.35,1.83 C154.236069,1.98669895 154.176381,2.17629471 154.18,2.37 L154.18,10.26 L162.6,10.26 L162.6,2.37 C162.6,1.85 162.37,1.59 161.91,1.62 L160.15,1.69 L160.15,0.36 L169.51,0.36 L169.51,1.69 L168.25,1.62 L168.18,1.62 C168.004801,1.61278697 167.837008,1.69109045 167.73,1.83 C167.619618,1.98793422 167.563472,2.17742582 167.57,2.37 L167.57,19.85 C167.57,20.4 167.79,20.66 168.25,20.64 L169.51,20.57 L169.51,21.85 L160.15,21.85 L160.15,20.52 L161.91,20.59 C162.37,20.59 162.6,20.33 162.6,19.8 L162.6,11.52 L154.17,11.52 L154.17,19.85 C154.17,20.38 154.41,20.64 154.89,20.64 L156.66,20.57 L156.66,21.85 L147.26,21.85 L147.27,20.52 Z" id="路径"></path>
            </g>
            <g id="SYSTEMS" transform="translate(0.150000, 269.608025)">
                <g id="编组">
                    <path d="M0.85,10.9119753 C0.926954287,12.2412955 1.46848532,13.5013285 2.38,14.4719753 C3.21167482,15.2846831 4.3376365,15.724963 5.5,15.6919753 C6.29556047,15.7368807 7.07630232,15.4634412 7.67,14.9319753 C8.20738983,14.409067 8.49498719,13.6809724 8.46,12.9319753 C8.46,11.6719753 7.61,10.7119753 5.9,10.0519753 L3.25,8.94197527 C1.39764987,8.39326283 0.132901204,6.68381221 0.15,4.75197527 C0.140944272,3.92390044 0.355113546,3.10867546 0.77,2.39197527 C1.20643871,1.64499014 1.85340435,1.04324253 2.63,0.661975268 C3.56389221,0.209274561 4.59248414,-0.0135870254 5.63,0.0119752678 C6.14016981,0.00532240399 6.64962852,0.0522462331 7.15,0.151975268 C7.5703875,0.242025762 7.9845701,0.358932139 8.39,0.501975268 L9.28,0.791975268 C9.53811821,0.895120799 9.81219267,0.952642601 10.09,0.961975268 C10.3476511,0.967228012 10.6044117,0.930065288 10.85,0.851975268 C10.7774459,1.53277568 10.7473876,2.21743584 10.76,2.90197527 C10.76,3.42197527 10.76,3.80197527 10.76,4.03197527 C10.7736197,4.25446239 10.8208204,4.47360873 10.9,4.68197527 L9.98,4.68197527 C10.0259046,3.65249689 9.61186584,2.65587253 8.85,1.96197527 C8.08235625,1.2836869 7.08373846,0.925759382 6.06,0.961975268 C5.29032829,0.928668267 4.53325878,1.1656947 3.92,1.63197527 C3.38973056,2.05890085 3.09298594,2.71173901 3.12,3.39197527 C3.12445324,3.89860896 3.32102254,4.38467123 3.67,4.75197527 C4.17252611,5.24358254 4.77670447,5.61906062 5.44,5.85197527 L7.73,6.85197527 C8.86492445,7.28988514 9.8892661,7.97277957 10.73,8.85197527 C11.3638675,9.62016995 11.6883564,10.5972026 11.64,11.5919753 C11.6513324,12.5135244 11.4165937,13.4214109 10.96,14.2219753 C10.489802,15.0244035 9.79438265,15.6711435 8.96,16.0819753 C7.96162699,16.5684203 6.8600781,16.8052018 5.75,16.7719753 C4.88558703,16.7601368 4.02586836,16.6425972 3.19,16.4219753 C2.50285541,16.2122358 1.79568733,16.074824 1.08,16.0119753 C0.92,16.0119753 0.73,16.0119753 0.5,16.0119753 C0.346136618,16.0245985 0.194728451,16.0582448 0.05,16.1119753 C0.146089584,15.4230642 0.182891225,14.7271786 0.16,14.0319753 C0.16,13.3119753 0.16,12.6419753 0.16,12.0319753 C0.16,11.4219753 0.07,11.1019753 6.63358257e-15,11.0319753 L0.85,10.9119753 Z" id="路径"></path>
                    <path d="M38,0.271975268 L38,1.27197527 L37.19,1.22197527 C36.9,1.22197527 36.65,1.40197527 36.43,1.78197527 L32.43,8.97197527 L32.43,14.8819753 C32.43,15.2619753 32.61,15.4419753 32.97,15.4419753 L34.27,15.3919753 L34.27,16.3919753 L26.85,16.3919753 L26.85,15.3919753 L28.17,15.4419753 C28.51,15.4419753 28.68,15.2519753 28.68,14.8519753 L28.68,9.48197527 L24.04,1.73197527 C23.82,1.39197527 23.61,1.22197527 23.39,1.22197527 L22.61,1.27197527 L22.61,0.271975268 L29.9,0.271975268 L29.9,1.27197527 L28.47,1.22197527 L28.47,1.22197527 C28.27,1.22197527 28.17,1.31197527 28.17,1.49197527 C28.1827123,1.62561536 28.231061,1.75339394 28.31,1.86197527 L31.9,7.86197527 L35.3,1.79197527 C35.3536356,1.71226709 35.3815558,1.61803642 35.38,1.52197527 C35.3900397,1.44774004 35.3648409,1.37307457 35.3118708,1.32010446 C35.2589007,1.26713435 35.1842352,1.24193557 35.11,1.25197527 L33.71,1.30197527 L33.71,0.301975268 L38,0.271975268 Z" id="路径"></path>
                    <path d="M50.04,10.9119753 C50.1169543,12.2412955 50.6584853,13.5013285 51.57,14.4719753 C52.4016748,15.2846831 53.5276365,15.724963 54.69,15.6919753 C55.4855605,15.7368807 56.2663023,15.4634412 56.86,14.9319753 C57.3999698,14.4100949 57.6910951,13.6822816 57.66,12.9319753 C57.66,11.6719753 56.8,10.7119753 55.09,10.0519753 L52.44,8.94197527 C50.599543,8.38231584 49.3489856,6.67552902 49.37,4.75197527 C49.3591399,3.9205168 49.573371,3.10160115 49.99,2.38197527 C50.4264387,1.63499014 51.0734044,1.03324253 51.85,0.651975268 C52.7838922,0.199274561 53.8124841,-0.0235870254 54.85,0.00197526785 C55.3601698,-0.00467759601 55.8696285,0.0422462331 56.37,0.141975268 C56.7903875,0.232025762 57.2045701,0.348932139 57.61,0.491975268 L58.5,0.781975268 C58.7586796,0.883251724 59.0324301,0.940705545 59.31,0.951975268 C59.5676963,0.957968471 59.8245783,0.920788174 60.07,0.841975268 C59.9974459,1.52277568 59.9673876,2.20743584 59.98,2.89197527 C59.98,3.41197527 59.98,3.79197527 59.98,4.02197527 C59.9936197,4.24446239 60.0408204,4.46360873 60.12,4.67197527 L59.25,4.67197527 C59.2878399,3.64274006 58.8665151,2.64987902 58.1,1.96197527 C57.3323562,1.2836869 56.3337385,0.925759382 55.31,0.961975268 C54.5403283,0.928668267 53.7832588,1.1656947 53.17,1.63197527 C52.6323235,2.05576837 52.3249604,2.70752631 52.34,3.39197527 C52.3444532,3.89860896 52.5410225,4.38467123 52.89,4.75197527 C53.3925261,5.24358254 53.9967045,5.61906062 54.66,5.85197527 L56.95,6.85197527 C58.0849245,7.28988514 59.1092661,7.97277957 59.95,8.85197527 C60.5838675,9.62016995 60.9083564,10.5972026 60.86,11.5919753 C60.8713324,12.5135244 60.6365937,13.4214109 60.18,14.2219753 C59.7079658,15.0229293 59.0130454,15.6692053 58.18,16.0819753 C57.1776992,16.5673599 56.0731832,16.8040419 54.96,16.7719753 C54.095587,16.7601368 53.2358684,16.6425972 52.4,16.4219753 C51.7128554,16.2122358 51.0056873,16.074824 50.29,16.0119753 C50.13,16.0119753 49.94,16.0119753 49.71,16.0119753 C49.5591301,16.0229321 49.4107854,16.0566468 49.27,16.1119753 C49.3559778,15.4221764 49.3894074,14.7268408 49.37,14.0319753 C49.37,13.3119753 49.37,12.6419753 49.37,12.0319753 C49.37,11.4219753 49.28,11.1019753 49.21,11.0319753 L50.04,10.9119753 Z" id="路径"></path>
                    <path d="M72.26,0.191975268 C72.692054,0.232989529 73.1260721,0.249682532 73.56,0.241975268 L84.85,0.241975268 C85.2739888,0.257598149 85.6985518,0.240883073 86.12,0.191975268 L86.12,4.39197527 L85.25,4.39197527 C85.3224794,3.51227881 85.0458854,2.63939152 84.48,1.96197527 C83.7678183,1.37271255 82.8499619,1.09195648 81.93,1.18197527 L81.39,1.18197527 C81.2169542,1.17623205 81.070726,1.3091667 81.06,1.48197527 L81.06,14.8419753 C81.06,15.2419753 81.24,15.4319753 81.6,15.4319753 L83.04,15.3819753 L83.04,16.3819753 L75.37,16.3819753 L75.37,15.3819753 L76.82,15.4319753 C76.9742417,15.4422766 77.1211658,15.3649481 77.2,15.2319753 C77.2935188,15.0932582 77.3423708,14.9292552 77.34,14.7619753 L77.34,1.51197527 C77.3502567,1.42253933 77.3183977,1.33341151 77.2537707,1.27074297 C77.1891438,1.20807442 77.0990781,1.17897221 77.01,1.19197527 L76.53,1.19197527 C75.6041332,1.10429307 74.6809495,1.38448111 73.96,1.97197527 C73.3866224,2.64569907 73.1058529,3.52040404 73.18,4.40197527 L72.26,4.40197527 L72.26,0.191975268 Z" id="路径"></path>
                    <path d="M97.94,15.3919753 L98.94,15.4719753 C99.26,15.4719753 99.43,15.2819753 99.43,14.8819753 L99.43,1.78197527 C99.4319743,1.62851888 99.3787398,1.47946234 99.28,1.36197527 C99.1825407,1.25161857 99.0353949,1.19879702 98.89,1.22197527 L97.97,1.27197527 L97.97,0.271975268 L109.85,0.271975268 C110.002823,0.28966729 110.157177,0.28966729 110.31,0.271975268 L110.31,4.39197527 L109.36,4.39197527 C109.447638,3.47416992 109.108386,2.5670401 108.44,1.93197527 C107.582281,1.3610831 106.556812,1.09678689 105.53,1.18197527 L103.45,1.18197527 C103.23,1.18197527 103.12,1.30197527 103.12,1.55197527 L103.12,7.55197527 L105.12,7.55197527 C105.700595,7.56477475 106.251699,7.29667019 106.6,6.83197527 C107.008075,6.24769709 107.208743,5.54359668 107.17,4.83197527 L108.09,4.83197527 L108.09,11.1719753 L107.17,11.1719753 C107.189433,10.4875898 106.974186,9.81714624 106.56,9.27197527 C106.230732,8.79982307 105.695508,8.51362681 105.12,8.50197527 L103.12,8.50197527 L103.12,15.0119753 C103.12,15.2419753 103.23,15.3619753 103.45,15.3619753 L106.45,15.3619753 C107.479055,15.434432 108.491272,15.07163 109.24,14.3619753 C109.935455,13.5766473 110.294579,12.5495529 110.24,11.5019753 L111.18,11.5019753 L111.18,16.4119753 C110.79,16.3619753 109.92,16.3319753 108.59,16.3319753 L97.94,16.3319753 L97.94,15.3919753 Z" id="路径"></path>
                    <path d="M145.49,15.3919753 L145.49,16.3919753 L138.41,16.3919753 L138.41,15.3919753 L139.73,15.4419753 C140.09,15.4419753 140.27,15.2519753 140.27,14.8519753 L140.27,2.85197527 L134.06,16.6519753 L133.2,16.6519753 L126.26,2.15197527 L126.26,14.8419753 C126.26,15.2419753 126.43,15.4319753 126.77,15.4319753 L128.1,15.3819753 L128.1,16.3819753 L123.56,16.3819753 L123.56,15.3819753 L124.62,15.4319753 C124.97,15.4319753 125.15,15.2419753 125.15,14.8419753 L125.15,1.39197527 C125.15,1.26197527 125.06,1.21197527 124.89,1.23197527 L123.75,1.28197527 L123.75,0.281975268 L129.31,0.281975268 L134.98,12.0519753 L140.3,0.281975268 L145.35,0.281975268 L145.35,1.28197527 L144.51,1.23197527 L144.51,1.23197527 C144.374646,1.2272124 144.244958,1.28649815 144.16,1.39197527 C144.068393,1.49723533 144.01858,1.63244213 144.02,1.77197527 L144.02,14.8619753 C144.02,15.2919753 144.2,15.4919753 144.56,15.4519753 L145.49,15.3919753 Z" id="路径"></path>
                </g>
                <path d="M158.94,10.9119753 C159.018363,12.2390353 159.55571,13.4975583 160.46,14.4719753 C161.293566,15.2817488 162.418237,15.721524 163.58,15.6919753 C164.378953,15.739586 165.163807,15.4659672 165.76,14.9319753 C166.29739,14.409067 166.584987,13.6809724 166.55,12.9319753 C166.55,11.6719753 165.7,10.7119753 163.99,10.0519753 L161.34,8.94197527 C159.497605,8.38308712 158.243639,6.67720439 158.26,4.75197527 C158.242309,3.9267274 158.446039,3.11181013 158.85,2.39197527 C159.286439,1.64499014 159.933404,1.04324253 160.71,0.661975268 C161.643509,0.208164714 162.672374,-0.0147560492 163.71,0.0119752678 C164.216882,0.00475398699 164.723086,0.0516867882 165.22,0.151975268 C165.643993,0.240687212 166.061589,0.357614014 166.47,0.501975268 L167.36,0.791975268 C167.618118,0.895120799 167.892193,0.952642601 168.17,0.961975268 C168.424387,0.967414926 168.677889,0.930234522 168.92,0.851975268 C168.857214,1.53342054 168.83051,2.21770946 168.84,2.90197527 C168.84,3.42197527 168.84,3.80197527 168.84,4.03197527 C168.855203,4.25333049 168.898897,4.47179988 168.97,4.68197527 L168.06,4.68197527 C168.092314,3.65376632 167.671937,2.66314032 166.91,1.97197527 C166.13982,1.29126401 165.137151,0.933167898 164.11,0.971975268 C163.343605,0.940178054 162.590187,1.17716875 161.98,1.64197527 C161.436024,2.06165981 161.124153,2.71510244 161.14,3.40197527 C161.147152,3.90998126 161.34737,4.39622505 161.7,4.76197527 C162.202526,5.25358254 162.806704,5.62906062 163.47,5.86197527 L165.76,6.86197527 C166.894924,7.29988514 167.919266,7.98277957 168.76,8.86197527 C169.393867,9.63016995 169.718356,10.6072026 169.67,11.6019753 C169.681332,12.5235244 169.446594,13.4314109 168.99,14.2319753 C168.517061,15.0322012 167.822385,15.6782499 166.99,16.0919753 C165.991627,16.5784203 164.890078,16.8152018 163.78,16.7819753 C162.912295,16.7701523 162.049266,16.6526192 161.21,16.4319753 C160.526418,16.2216306 159.822501,16.084199 159.11,16.0219753 C158.95,16.0219753 158.75,16.0219753 158.53,16.0219753 C158.375743,16.0319229 158.223951,16.0656545 158.08,16.1219753 C158.170863,15.4325723 158.207641,14.7371164 158.19,14.0419753 C158.19,13.3219753 158.19,12.6519753 158.14,12.0419753 C158.09,11.4319753 158.05,11.1119753 157.97,11.0419753 L158.94,10.9119753 Z" id="路径"></path>
            </g>
            <g id="Path">
                <polygon id="路径" points="0 214.52 0 210.48 80.95 210.48 161.91 210.48 161.91 157.86 161.91 105.24 89.05 105.24 16.19 105.24 16.19 68.81 16.19 32.38 20.24 32.38 24.29 32.38 24.29 64.76 24.29 97.14 36.43 97.14 48.57 97.14 48.57 72.86 48.57 48.57 85 48.57 121.43 48.57 121.43 52.62 121.43 56.67 89.05 56.67 56.67 56.67 56.67 76.91 56.67 97.14 109.29 97.14 161.91 97.14 161.91 52.62 161.91 8.1 80.95 8.1 0 8.1 0 4.05 0 0 85 0 170 0 170 109.29 170 218.57 85 218.57 0 218.57"></polygon>
                <polygon id="路径" points="0 109.29 0 16.19 76.91 16.19 153.81 16.19 153.81 52.62 153.81 89.05 109.29 89.05 64.76 89.05 64.76 76.91 64.76 64.76 93.09 64.76 121.43 64.76 121.43 68.81 121.43 72.86 97.14 72.86 72.86 72.86 72.86 76.91 72.86 80.95 109.29 80.95 145.71 80.95 145.71 52.62 145.71 24.29 76.91 24.29 8.1 24.29 8.1 68.81 8.1 113.33 64.76 113.33 121.43 113.33 121.43 133.57 121.43 153.81 76.91 153.81 32.38 153.81 32.38 149.76 32.38 145.71 72.86 145.71 113.33 145.71 113.33 133.57 113.33 121.43 60.71 121.43 8.1 121.43 8.1 157.86 8.1 194.29 76.91 194.29 145.71 194.29 145.71 153.81 145.71 113.33 149.76 113.33 153.81 113.33 153.81 157.86 153.81 202.38 76.91 202.38 0 202.38"></polygon>
                <polygon id="路径" points="16.19 157.86 16.19 129.52 60.71 129.52 105.24 129.52 105.24 133.57 105.24 137.62 64.76 137.62 24.29 137.62 24.29 157.86 24.29 178.09 80.95 178.09 137.62 178.09 137.62 182.14 137.62 186.19 76.91 186.19 16.19 186.19"></polygon>
                <polygon id="路径" points="32.38 165.95 32.38 161.91 80.95 161.91 129.52 161.91 129.52 137.62 129.52 113.33 133.57 113.33 137.62 113.33 137.62 141.67 137.62 170 85 170 32.38 170"></polygon>
                <polygon id="路径" points="32.38 60.71 32.38 32.38 85 32.38 137.62 32.38 137.62 52.62 137.62 72.86 133.57 72.86 129.52 72.86 129.52 56.67 129.52 40.48 85 40.48 40.48 40.48 40.48 64.76 40.48 89.05 36.43 89.05 32.38 89.05"></polygon>
            </g>
        </g>
    </g>
</svg>